<svg width="40" height="59" viewBox="0 0 40 59" fill="none" xmlns="http://www.w3.org/2000/svg">
<g clip-path="url(#clip0_18_429)">
<path d="M38.5591 35.444C38.5591 37.1285 37.8192 37.8935 36.1485 37.8858C32.0632 37.8858 27.9701 37.8626 23.8926 37.9051C22.179 37.9051 21.4819 37.0745 21.4897 35.444C21.4897 32.3532 21.4897 29.2624 21.4702 26.1716C21.4235 21.0988 18.9778 18.5952 13.9851 18.5179C11.0564 18.4793 8.14729 18.4793 5.21476 18.4793C3.59467 18.4793 2.77683 17.8186 2.85861 16.053C2.96766 13.9667 2.88198 11.8726 2.88977 9.7786C2.89756 7.68457 2.91703 5.59826 2.88977 3.50423C2.85861 2.0245 3.62582 1.3136 5.00446 1.30201C9.17543 1.26724 13.3425 1.25565 17.5135 1.30201C19.2582 1.32133 19.9826 2.33357 19.9514 4.07989C19.8969 7.5957 19.8969 11.1089 19.9514 14.6196C20.0176 18.402 22.0349 20.5617 25.7931 20.7279C29.0411 20.8669 32.2929 20.836 35.5487 20.7703C37.605 20.7356 38.6292 21.3924 38.563 23.6603C38.4579 27.5779 38.5241 31.5148 38.5591 35.444Z" fill="white"/>
<path d="M37.1491 56.3419C37.1491 58.0264 36.4053 58.7875 34.7384 58.7836C30.6531 58.7643 26.5601 58.7566 22.4826 58.7836C20.7651 58.7836 20.0719 57.9568 20.0797 56.3264C20.0797 53.2356 20.0797 50.1448 20.0797 47.0539C20.0329 41.9773 17.5872 39.4776 12.5906 39.4003C9.67368 39.3578 6.74894 39.3617 3.83588 39.3617C2.21579 39.3617 1.39405 38.7049 1.4992 36.9392C1.60436 34.8529 1.52257 32.7589 1.52647 30.6648C1.53036 28.5708 1.55762 26.4845 1.52647 24.3905C1.4992 22.9069 2.26252 22.1999 3.64505 22.1883C7.81602 22.1535 11.9831 22.1419 16.1502 22.1883C17.8988 22.1883 18.6231 23.2198 18.592 24.9661C18.5375 28.482 18.5375 31.9952 18.592 35.5059C18.6582 39.2844 20.6755 41.4441 24.4337 41.6141C27.6817 41.7493 30.9335 41.7223 34.1698 41.6566C36.23 41.618 37.2504 42.2786 37.188 44.5465C37.0323 48.4719 37.0985 52.4088 37.1491 56.3419Z" fill="white"/>
<path d="M31.3388 16.7291C29.3409 16.7291 27.3391 16.6905 25.3413 16.7291C23.6783 16.7677 22.9228 16.1032 22.9501 14.353C23.0202 10.3453 23.0202 6.33619 22.9501 2.32585C22.9189 0.548622 23.729 -0.0193168 25.3802 0.00772794C29.4577 0.0502268 33.5586 0.0618174 37.6205 0.00772794C39.3808 -0.0154533 40 0.880884 40 2.4688C40 6.39414 40 10.3195 40 14.2487C40 16.0684 39.0693 16.7716 37.3362 16.733C35.3384 16.6905 33.3366 16.733 31.3388 16.733V16.7291Z" fill="white"/>
<path d="M8.39246 58.9884C6.39071 58.9884 4.39285 58.9536 2.39499 58.9884C0.732059 59.0271 -0.0234661 58.3625 0.00379515 56.6162C0.0738954 52.6059 0.0738954 48.5968 0.00379515 44.589C-0.0273605 42.8118 0.782687 42.2439 2.43004 42.2709C6.51144 42.3134 10.6084 42.3211 14.6742 42.2709C16.4345 42.2439 17.0537 43.1441 17.0537 44.732C17.0537 48.6573 17.0537 52.5827 17.0537 56.508C17.0537 58.3277 16.1191 59.0348 14.386 58.9961C12.3882 58.9498 10.3903 58.9961 8.39246 58.9961V58.9884Z" fill="white"/>
</g>
<defs>
<clipPath id="clip0_18_429">
<rect width="40" height="59" fill="white"/>
</clipPath>
</defs>
</svg>
